<svg width="103" height="23" viewBox="0 0 103 23" fill="none" xmlns="http://www.w3.org/2000/svg">
<path d="M14.7749 17.38H11.8634L10.2685 12.4937H4.72494L3.20571 17.38H0.371094L5.8634 0.744965H9.2557L14.7749 17.38ZM9.78776 10.4437L8.34545 6.09997C8.19289 5.65622 7.90699 4.61122 7.48519 2.96622H7.43391C7.26596 3.67372 6.99545 4.71872 6.62365 6.09997L5.20699 10.4437H9.78776Z" fill="white"/>
<path d="M28.9002 11.235C28.9002 13.275 28.3348 14.8875 27.204 16.0713C26.1912 17.125 24.9335 17.6513 23.4322 17.6513C21.8117 17.6513 20.6476 17.0838 19.9386 15.9488H19.8873V22.2675H17.154V9.33376C17.154 8.05126 17.1194 6.73501 17.0527 5.38501H19.4566L19.6091 7.28626H19.6604C20.572 5.85376 21.9553 5.13876 23.8117 5.13876C25.263 5.13876 26.4745 5.69751 27.4438 6.81626C28.4156 7.93626 28.9002 9.40876 28.9002 11.235ZM26.1156 11.3325C26.1156 10.165 25.8463 9.20251 25.3053 8.44501C24.7143 7.65501 23.9207 7.26001 22.9258 7.26001C22.2514 7.26001 21.6386 7.48001 21.0912 7.91376C20.5425 8.35126 20.1835 8.92251 20.0156 9.63001C19.9309 9.96001 19.8886 10.23 19.8886 10.4425V12.4425C19.8886 13.315 20.163 14.0513 20.7117 14.6525C21.2604 15.2538 21.9732 15.5538 22.8502 15.5538C23.8797 15.5538 24.6809 15.1663 25.254 14.3938C25.8284 13.62 26.1156 12.6 26.1156 11.3325Z" fill="white"/>
<path d="M43.0493 11.235C43.0493 13.275 42.4839 14.8875 41.3518 16.0713C40.3403 17.125 39.0826 17.6513 37.5813 17.6513C35.9608 17.6513 34.7967 17.0838 34.089 15.9488H34.0377V22.2675H31.3044V9.33376C31.3044 8.05126 31.2698 6.73501 31.2031 5.38501H33.607L33.7595 7.28626H33.8108C34.7211 5.85376 36.1044 5.13876 37.9621 5.13876C39.4121 5.13876 40.6236 5.69751 41.5954 6.81626C42.5634 7.93626 43.0493 9.40876 43.0493 11.235ZM40.2647 11.3325C40.2647 10.165 39.9941 9.20251 39.4531 8.44501C38.8621 7.65501 38.0711 7.26001 37.0749 7.26001C36.3993 7.26001 35.7877 7.48001 35.239 7.91376C34.6903 8.35126 34.3326 8.92251 34.1647 9.63001C34.0813 9.96001 34.0377 10.23 34.0377 10.4425V12.4425C34.0377 13.315 34.3121 14.0513 34.8583 14.6525C35.407 15.2525 36.1198 15.5538 36.9993 15.5538C38.0288 15.5538 38.8301 15.1663 39.4031 14.3938C39.9775 13.62 40.2647 12.6 40.2647 11.3325Z" fill="white"/>
<path d="M58.8698 12.715C58.8698 14.13 58.3659 15.2813 57.3544 16.17C56.2429 17.1413 54.6954 17.6263 52.707 17.6263C50.8711 17.6263 49.3993 17.2813 48.2852 16.59L48.9185 14.3688C50.1185 15.0763 51.4352 15.4313 52.8698 15.4313C53.8993 15.4313 54.7005 15.2038 55.2762 14.7513C55.8493 14.2988 56.1352 13.6913 56.1352 12.9338C56.1352 12.2588 55.8993 11.69 55.4262 11.2288C54.9557 10.7675 54.1698 10.3388 53.0723 9.9425C50.0852 8.85625 48.5929 7.265 48.5929 5.1725C48.5929 3.805 49.1159 2.68375 50.1634 1.81125C51.207 0.937502 52.5993 0.501251 54.3403 0.501251C55.8928 0.501251 57.1826 0.765001 58.2121 1.29125L57.5287 3.46375C56.5672 2.95375 55.48 2.69875 54.2634 2.69875C53.3018 2.69875 52.5505 2.93 52.0121 3.39C51.557 3.80125 51.3287 4.3025 51.3287 4.89625C51.3287 5.55375 51.589 6.0975 52.1121 6.525C52.5672 6.92 53.3941 7.3475 54.5941 7.80875C56.0621 8.385 57.1403 9.05875 57.8339 9.83125C58.5249 10.6013 58.8698 11.565 58.8698 12.715Z" fill="white"/>
<path d="M67.9064 7.38499H64.8935V13.2087C64.8935 14.69 65.4243 15.43 66.4884 15.43C66.9769 15.43 67.382 15.3887 67.7025 15.3062L67.7782 17.33C67.2397 17.5262 66.5307 17.625 65.6525 17.625C64.573 17.625 63.7294 17.3037 63.1205 16.6625C62.5141 16.02 62.2089 14.9425 62.2089 13.4287V7.38249H60.4141V5.38249H62.2089V3.18624L64.8935 2.39624V5.38249H67.9064V7.38499Z" fill="white"/>
<path d="M81.5012 11.2837C81.5012 13.1275 80.9601 14.6412 79.8806 15.825C78.7486 17.0437 77.246 17.6512 75.373 17.6512C73.5678 17.6512 72.1307 17.0675 71.0589 15.9C69.9871 14.7325 69.4512 13.2587 69.4512 11.4825C69.4512 9.62373 70.0025 8.10123 71.1089 6.91748C72.2127 5.73249 73.7024 5.13998 75.5755 5.13998C77.3806 5.13998 78.8332 5.72373 79.9294 6.89248C80.9781 8.02623 81.5012 9.48998 81.5012 11.2837ZM78.6653 11.37C78.6653 10.2637 78.423 9.31498 77.9319 8.52373C77.3589 7.56623 76.5396 7.08873 75.4781 7.08873C74.3794 7.08873 73.5448 7.56748 72.9717 8.52373C72.4807 9.31623 72.2384 10.28 72.2384 11.42C72.2384 12.5262 72.4807 13.475 72.9717 14.265C73.5627 15.2225 74.3883 15.7 75.4537 15.7C76.4973 15.7 77.3165 15.2125 77.9076 14.24C78.4114 13.4337 78.6653 12.475 78.6653 11.37Z" fill="white"/>
<path d="M90.3848 7.72876C90.1143 7.68001 89.8258 7.65501 89.5233 7.65501C88.5617 7.65501 87.8181 8.00876 87.2951 8.71751C86.8399 9.34251 86.6117 10.1325 86.6117 11.0863V17.38H83.8797L83.9053 9.16251C83.9053 7.78001 83.8707 6.52126 83.8027 5.38626H86.1835L86.2835 7.68126H86.3592C86.6476 6.89251 87.1028 6.25751 87.7258 5.78126C88.3348 5.35251 88.9925 5.13876 89.7015 5.13876C89.954 5.13876 90.1823 5.15626 90.3848 5.18751V7.72876Z" fill="white"/>
<path d="M102.609 10.815C102.609 11.2925 102.577 11.695 102.509 12.0237H94.3091C94.3412 13.2087 94.7373 14.115 95.4989 14.74C96.1899 15.2987 97.0835 15.5787 98.1809 15.5787C99.395 15.5787 100.503 15.39 101.499 15.0112L101.927 16.8612C100.763 17.3562 99.3886 17.6025 97.8027 17.6025C95.895 17.6025 94.3976 17.055 93.3078 15.9612C92.2207 14.8675 91.6758 13.3987 91.6758 11.5562C91.6758 9.74749 92.1822 8.24124 93.1963 7.03999C94.2578 5.75749 95.6924 5.11624 97.4976 5.11624C99.2706 5.11624 100.613 5.75749 101.524 7.03999C102.246 8.05874 102.609 9.31874 102.609 10.815ZM100.003 10.1237C100.021 9.33374 99.8424 8.65124 99.4719 8.07499C98.9989 7.33374 98.2719 6.96374 97.2937 6.96374C96.4001 6.96374 95.6732 7.32499 95.1181 8.04999C94.663 8.62624 94.3924 9.31749 94.3091 10.1225H100.003V10.1237Z" fill="white"/>
</svg>
