<svg width="28" height="33" viewBox="0 0 28 33" fill="none" xmlns="http://www.w3.org/2000/svg">
<path d="M22.6262 17.73C22.589 13.7012 26.0095 11.7412 26.1659 11.65C24.2287 8.89624 21.2262 8.51999 20.171 8.48999C17.6492 8.23124 15.2031 9.96124 13.9185 9.96124C12.6082 9.96124 10.63 8.51499 8.49795 8.55749C5.75436 8.59874 3.18769 10.1475 1.78 12.5525C-1.12513 17.4562 1.04154 24.6625 3.82487 28.6262C5.21718 30.5675 6.8441 32.735 8.97359 32.6587C11.0569 32.575 11.8351 31.3637 14.3492 31.3637C16.8403 31.3637 17.571 32.6587 19.7428 32.61C21.9787 32.575 23.3864 30.66 24.73 28.7012C26.339 26.4762 26.9851 24.285 27.0108 24.1725C26.9582 24.155 22.6685 22.5587 22.6262 17.73Z" fill="white"/>
<path d="M18.5236 5.88249C19.6441 4.51624 20.4108 2.65749 20.1979 0.77124C18.5762 0.84124 16.5479 1.86499 15.38 3.20124C14.3467 4.37874 13.4236 6.30874 13.6621 8.12374C15.4838 8.25624 17.3544 7.22749 18.5236 5.88249Z" fill="white"/>
</svg>
