<svg width="84" height="50" viewBox="0 0 84 50" fill="none" xmlns="http://www.w3.org/2000/svg">
<path d="M23.4673 18.1591C23.4673 19.188 23.5781 20.0222 23.772 20.634C23.9936 21.2458 24.2706 21.9132 24.6585 22.6363C24.797 22.8587 24.8524 23.0812 24.8524 23.2759C24.8524 23.554 24.6862 23.832 24.3261 24.1101L22.5808 25.2781C22.3314 25.4449 22.0821 25.5284 21.8605 25.5284C21.5835 25.5284 21.3064 25.3893 21.0294 25.139C20.6416 24.7219 20.3091 24.277 20.0321 23.832C19.7551 23.3593 19.478 22.8309 19.1733 22.1913C17.0125 24.7497 14.2976 26.0289 11.0286 26.0289C8.70156 26.0289 6.84546 25.3615 5.48801 24.0267C4.13056 22.6919 3.43799 20.9121 3.43799 18.6874C3.43799 16.3237 4.26908 14.4049 5.95896 12.9588C7.64884 11.5128 9.89279 10.7898 12.7462 10.7898C13.6881 10.7898 14.6577 10.8732 15.6827 11.0122C16.7077 11.1513 17.7604 11.3738 18.8686 11.624V9.59399C18.8686 7.48053 18.4253 6.00667 17.5665 5.14461C16.68 4.28254 15.1841 3.86541 13.0509 3.86541C12.0813 3.86541 11.084 3.97664 10.059 4.22692C9.03399 4.4772 8.03669 4.78309 7.06708 5.17241C6.62383 5.36707 6.2914 5.47831 6.09748 5.53393C5.90356 5.58954 5.76504 5.61735 5.65423 5.61735C5.26639 5.61735 5.07247 5.33927 5.07247 4.75528V3.39266C5.07247 2.94772 5.12787 2.61402 5.26639 2.41935C5.4049 2.22469 5.65423 2.03003 6.04207 1.83537C7.01168 1.33482 8.1752 0.917686 9.53265 0.583982C10.8901 0.222469 12.3307 0.0556173 13.8543 0.0556173C17.151 0.0556173 19.5611 0.806451 21.1125 2.30812C22.6362 3.80979 23.4119 6.0901 23.4119 9.14906V18.1591H23.4673ZM12.2198 22.386C13.134 22.386 14.0759 22.2191 15.0732 21.8854C16.0706 21.5517 16.9571 20.9399 17.705 20.1057C18.1483 19.5773 18.4807 18.9933 18.6469 18.3259C18.8132 17.6585 18.924 16.8521 18.924 15.9066V14.7386C18.1206 14.5439 17.2618 14.3771 16.3753 14.2659C15.4888 14.1546 14.63 14.099 13.7712 14.099C11.9151 14.099 10.5577 14.4605 9.64346 15.2113C8.72926 15.9622 8.28601 17.0189 8.28601 18.4093C8.28601 19.7164 8.61845 20.6897 9.31102 21.3571C9.9759 22.0523 10.9455 22.386 12.2198 22.386ZM34.4654 25.3893C33.9667 25.3893 33.6343 25.3059 33.4126 25.1112C33.191 24.9444 32.9971 24.5551 32.8309 24.0267L26.3207 2.53059C26.1544 1.97442 26.0713 1.6129 26.0713 1.41824C26.0713 0.973304 26.293 0.723026 26.7362 0.723026H29.4511C29.9775 0.723026 30.3376 0.806452 30.5315 1.00111C30.7531 1.16796 30.9194 1.55729 31.0856 2.08565L35.7397 20.495L40.0614 2.08565C40.1999 1.52948 40.3661 1.16796 40.5877 1.00111C40.8093 0.83426 41.1972 0.723026 41.6958 0.723026H43.9121C44.4384 0.723026 44.7986 0.806452 45.0202 1.00111C45.2418 1.16796 45.4357 1.55729 45.5466 2.08565L49.9236 20.7175L54.7162 2.08565C54.8825 1.52948 55.0764 1.16796 55.2703 1.00111C55.4919 0.83426 55.8521 0.723026 56.3507 0.723026H58.9271C59.3703 0.723026 59.6197 0.945495 59.6197 1.41824C59.6197 1.55729 59.592 1.69633 59.5643 1.86318C59.5366 2.03003 59.4812 2.2525 59.3703 2.5584L52.6939 24.0545C52.5277 24.6107 52.3338 24.9722 52.1122 25.139C51.8905 25.3059 51.5304 25.4171 51.0594 25.4171H48.677C48.1506 25.4171 47.7905 25.3337 47.5689 25.139C47.3472 24.9444 47.1533 24.5829 47.0425 24.0267L42.7485 6.0901L38.4823 23.9989C38.3438 24.5551 38.1776 24.9166 37.9559 25.1112C37.7343 25.3059 37.3465 25.3893 36.8478 25.3893H34.4654ZM70.0637 26.1402C68.6232 26.1402 67.1826 25.9733 65.7974 25.6396C64.4123 25.3059 63.3319 24.9444 62.6116 24.5273C62.1684 24.277 61.8636 23.9989 61.7528 23.7486C61.642 23.4983 61.5866 23.2202 61.5866 22.97V21.5517C61.5866 20.9677 61.8082 20.6897 62.2238 20.6897C62.39 20.6897 62.5562 20.7175 62.7224 20.7731C62.8886 20.8287 63.138 20.9399 63.415 21.0512C64.3569 21.4683 65.3819 21.802 66.4623 22.0245C67.5704 22.2469 68.6509 22.3582 69.759 22.3582C71.5043 22.3582 72.8617 22.0523 73.8036 21.4405C74.7455 20.8287 75.2442 19.9388 75.2442 18.7987C75.2442 18.02 74.9948 17.3804 74.4962 16.8521C73.9975 16.3237 73.0556 15.8509 71.6982 15.406L67.6813 14.1546C65.6589 13.515 64.163 12.5695 63.2488 11.3181C62.3346 10.0946 61.8636 8.73193 61.8636 7.28587C61.8636 6.11791 62.1129 5.08899 62.6116 4.19911C63.1103 3.30923 63.7751 2.53059 64.6062 1.9188C65.4373 1.2792 66.3792 0.806452 67.4873 0.472748C68.5955 0.139043 69.759 0 70.9779 0C71.5874 0 72.2245 0.0278087 72.834 0.111235C73.4712 0.194661 74.0529 0.305895 74.6347 0.41713C75.1888 0.556174 75.7151 0.695217 76.2138 0.862069C76.7124 1.02892 77.1003 1.19577 77.3773 1.36263C77.7651 1.58509 78.0422 1.80756 78.2084 2.05784C78.3746 2.28031 78.4577 2.58621 78.4577 2.97553V4.28254C78.4577 4.86652 78.2361 5.17241 77.8205 5.17241C77.5989 5.17241 77.2388 5.06118 76.7678 4.83871C75.1888 4.11568 73.4158 3.75417 71.4489 3.75417C69.8698 3.75417 68.6232 4.00445 67.7644 4.53281C66.9056 5.06118 66.4623 5.86763 66.4623 7.00779C66.4623 7.78643 66.7393 8.45384 67.2934 8.9822C67.8475 9.51057 68.8725 10.0389 70.3407 10.5117L74.2746 11.7631C76.2692 12.4027 77.7097 13.2925 78.5685 14.4327C79.4273 15.5729 79.8429 16.8799 79.8429 18.3259C79.8429 19.5217 79.5935 20.6062 79.1226 21.5517C78.6239 22.4972 77.9591 23.3315 77.1003 23.9989C76.2415 24.6941 75.2165 25.1947 74.0252 25.5562C72.7786 25.9455 71.4766 26.1402 70.0637 26.1402Z" fill="#252F3E"/>
<path fill-rule="evenodd" clip-rule="evenodd" d="M75.2993 39.6552C66.185 46.4127 52.943 50 41.557 50C25.6001 50 11.2222 44.0767 0.362661 34.2325C-0.496132 33.4538 0.279552 32.3971 1.30456 33.0089C13.0506 39.8498 27.5393 43.9933 42.5266 43.9933C52.6382 43.9933 63.7471 41.8799 73.9695 37.5417C75.4932 36.8465 76.7952 38.5428 75.2993 39.6552Z" fill="#FF9900"/>
<path fill-rule="evenodd" clip-rule="evenodd" d="M79.0946 35.317C77.9311 33.8154 71.3932 34.594 68.4289 34.9555C67.5424 35.0668 67.4039 34.2881 68.2073 33.7041C73.4155 30.0334 81.9757 31.0901 82.973 32.3137C83.9703 33.5651 82.696 42.158 77.8203 46.2737C77.0723 46.9133 76.352 46.5796 76.6844 45.7453C77.7925 42.9922 80.2581 36.7909 79.0946 35.317Z" fill="#FF9900"/>
</svg>
