<svg width="33" height="36" viewBox="0 0 33 36" fill="none" xmlns="http://www.w3.org/2000/svg">
<path d="M1.45372 2.42345C1.07601 2.80783 0.857422 3.40626 0.857422 4.18126V31.825C0.857422 32.6 1.07601 33.1985 1.45372 33.5828L1.54694 33.6672L17.4814 18.1828V17.8172L1.54694 2.33283L1.45372 2.42345Z" fill="white"/>
<path d="M24.7157 23.3469L19.4102 18.1828V17.8172L24.7222 12.6531L24.8411 12.7203L31.132 16.2C32.9273 17.1875 32.9273 18.8125 31.132 19.8062L24.8411 23.2797L24.7157 23.3469Z" fill="white"/>
<path d="M23.8766 24.2412L18.4456 18.9615L2.41797 34.5444C3.01426 35.1537 3.98666 35.2272 5.09246 34.6178L23.8766 24.2412Z" fill="white"/>
<path d="M23.8766 11.7588L5.09246 1.38224C3.98666 0.77911 3.01426 0.852546 2.41797 1.46192L18.4456 17.0385L23.8766 11.7588Z" fill="white"/>
</svg>
