<svg width="96" height="50" viewBox="0 0 96 50" fill="none" xmlns="http://www.w3.org/2000/svg">
<path d="M31.3227 49.7066H27.1572V33.2228H31.3227V49.7066Z" fill="#C4122E"/>
<path d="M64.9095 37.9458C64.738 37.8589 63.3974 37.0658 61.4051 37.0658C58.7121 37.0658 56.8438 38.9366 56.8438 41.4624C56.8438 43.9117 58.6317 45.863 61.4051 45.863C63.3631 45.863 64.7261 45.0856 64.9095 44.9881V49.4124C64.387 49.5573 62.9633 49.9987 61.1135 49.9987C56.4282 49.9987 52.3156 46.7734 52.3156 41.4611C52.3156 36.5401 56.0364 32.93 61.1135 32.93C63.0663 32.93 64.515 33.4043 64.9095 33.5216V37.9458ZM21.4304 37.9458C21.2629 37.8589 19.9237 37.0658 17.9313 37.0658C15.2331 37.0658 13.3661 38.9366 13.3661 41.4624C13.3661 43.9117 15.1553 45.863 17.9313 45.863C19.8894 45.863 21.251 45.0856 21.4304 44.9881V49.4124C20.9132 49.5573 19.4909 49.9987 17.6305 49.9987C12.9492 49.9987 8.8418 46.7734 8.8418 41.4611C8.8418 36.5401 12.5626 32.93 17.6318 32.93C19.5925 32.93 21.0386 33.4043 21.4304 33.5216V37.9458ZM78.0127 37.1277C75.5414 37.1277 73.7061 39.0697 73.7061 41.4624C73.7061 43.8603 75.5414 45.8011 78.0127 45.8011C80.4814 45.8011 82.3219 43.8603 82.3219 41.4624C82.3219 39.0697 80.4814 37.1277 78.0127 37.1277ZM86.7354 41.4624C86.7354 46.1778 83.0899 49.9987 78.014 49.9987C72.9355 49.9987 69.2953 46.1779 69.2953 41.4611C69.2953 36.7548 72.9369 32.93 78.0127 32.93C83.0899 32.93 86.7354 36.7548 86.7354 41.4624ZM47.1184 36.9696C47.0563 36.9498 45.3028 36.4663 43.862 36.4663C42.1929 36.4663 41.2852 37.0249 41.2852 37.8168C41.2852 38.8207 42.5096 39.1711 43.1944 39.3872L44.3436 39.7522C47.0484 40.6113 48.2794 42.4597 48.2794 44.4677C48.2794 48.6087 44.6325 50 41.4448 50C39.2295 50 37.154 49.5916 36.9495 49.5494V45.7549C37.3163 45.8471 39.0633 46.3689 40.8827 46.3689C42.9556 46.3689 43.9082 45.7629 43.9082 44.83C43.9082 43.9947 43.0835 43.5125 42.0504 43.1883C41.7997 43.104 41.4198 42.9854 41.1611 42.9011C38.8416 42.1685 36.9073 40.8062 36.9073 38.0789C36.9073 34.9959 39.2189 32.926 43.0585 32.926C45.0864 32.926 46.9943 33.4175 47.1184 33.4504V36.9682V36.9696Z" fill="#C4122E"/>
<path d="M4.42498 15.5082C4.42498 14.3725 3.4961 13.4515 2.35744 13.4515C1.21877 13.4515 0.288574 14.3724 0.288574 15.5068V19.835C0.302201 20.3737 0.526084 20.8858 0.912461 21.262C1.29884 21.6382 1.81713 21.8487 2.35678 21.8487C2.89643 21.8487 3.41471 21.6382 3.80109 21.262C4.18747 20.8858 4.41135 20.3737 4.42498 19.835V15.5082ZM15.7839 9.8296C15.7839 9.28187 15.566 8.75655 15.1782 8.36924C14.7903 7.98194 14.2642 7.76435 13.7157 7.76435C13.1672 7.76435 12.6411 7.98194 12.2533 8.36924C11.8654 8.75655 11.6475 9.28187 11.6475 9.8296V19.835C11.6475 20.3827 11.8654 20.9081 12.2533 21.2954C12.6411 21.6827 13.1672 21.9003 13.7157 21.9003C14.2642 21.9003 14.7903 21.6827 15.1782 21.2954C15.566 20.9081 15.7839 20.3827 15.7839 19.835V9.82824V9.8296ZM27.1442 2.05874C27.1442 0.923018 26.2153 0.000722885 25.0766 0.000722885C23.9366 0.000722885 23.0078 0.923018 23.0078 2.05874V23.947C23.0214 24.4857 23.2453 24.9978 23.6317 25.374C24.018 25.7502 24.5363 25.9608 25.076 25.9608C25.6156 25.9608 26.1339 25.7502 26.5203 25.374C26.9067 24.9978 27.1305 24.4857 27.1442 23.947V2.05874ZM38.5031 9.8296C38.5031 9.28187 38.2852 8.75655 37.8973 8.36924C37.5095 7.98194 36.9834 7.76435 36.4349 7.76435C35.8864 7.76435 35.3603 7.98194 34.9725 8.36924C34.5846 8.75655 34.3667 9.28187 34.3667 9.8296V19.835C34.3667 20.3827 34.5846 20.9081 34.9725 21.2954C35.3603 21.6827 35.8864 21.9003 36.4349 21.9003C36.9834 21.9003 37.5095 21.6827 37.8973 21.2954C38.2852 20.9081 38.5031 20.3827 38.5031 19.835V9.82824V9.8296ZM49.8502 15.5082C49.8505 14.9633 49.6342 14.4406 49.2487 14.0549C48.8632 13.6693 48.3402 13.4522 47.7945 13.4515C47.2477 13.4511 46.723 13.6673 46.3354 14.0526C45.9479 14.4379 45.7291 14.9608 45.727 15.5068V19.835C45.727 20.381 45.9442 20.9046 46.3308 21.2907C46.7174 21.6768 47.2418 21.8937 47.7886 21.8937C48.3353 21.8937 48.8597 21.6768 49.2463 21.2907C49.633 20.9046 49.8502 20.381 49.8502 19.835V15.5082ZM61.2144 9.8296C61.2008 9.29263 60.9776 8.78219 60.5925 8.4072C60.2073 8.03222 59.6907 7.82233 59.1528 7.82233C58.6149 7.82233 58.0982 8.03222 57.7131 8.4072C57.328 8.78219 57.1048 9.29263 57.0912 9.8296V19.835C57.0912 20.381 57.3084 20.9046 57.695 21.2907C58.0816 21.6768 58.606 21.8937 59.1528 21.8937C59.6996 21.8937 60.2239 21.6768 60.6106 21.2907C60.9972 20.9046 61.2144 20.381 61.2144 19.835V9.82824V9.8296ZM72.5812 2.05874C72.5812 1.51275 72.364 0.989115 71.9774 0.603041C71.5908 0.216969 71.0664 8.01086e-05 70.5196 8.01086e-05C69.9729 8.01086e-05 69.4485 0.216969 69.0619 0.603041C68.6752 0.989115 68.458 1.51275 68.458 2.05874V23.947C68.4458 24.2249 68.4901 24.5024 68.5882 24.7628C68.6863 25.0232 68.8362 25.2611 69.0289 25.462C69.2215 25.663 69.4529 25.823 69.7091 25.9322C69.9653 26.0415 70.241 26.0979 70.5196 26.0979C70.7982 26.0979 71.074 26.0415 71.3302 25.9322C71.5864 25.823 71.8178 25.663 72.0104 25.462C72.2031 25.2611 72.3529 25.0232 72.451 24.7628C72.5491 24.5024 72.5934 24.2249 72.5812 23.947V2.05874ZM83.9455 9.8296C83.9455 8.69257 83.0232 7.76894 81.8581 7.76894C81.3114 7.76929 80.7872 7.98638 80.4007 8.37254C80.0143 8.7587 79.7972 9.2823 79.7972 9.82824V19.835C79.7972 20.9773 80.7208 21.8982 81.8581 21.8982C83.0232 21.8982 83.9455 20.9773 83.9455 19.835V9.82824V9.8296ZM95.2886 15.5082C95.2886 14.9617 95.0712 14.4375 94.6842 14.0511C94.2972 13.6646 93.7723 13.4475 93.225 13.4475C92.6777 13.4475 92.1528 13.6646 91.7658 14.0511C91.3788 14.4375 91.1614 14.9617 91.1614 15.5082V19.835C91.1614 20.9773 92.0863 21.8995 93.225 21.8995C94.3623 21.8995 95.2872 20.9773 95.2872 19.835V15.5082H95.2886Z" fill="#15495D"/>
</svg>
