<svg width="100" height="9" viewBox="0 0 100 9" fill="none" xmlns="http://www.w3.org/2000/svg">
<path d="M6.88389 4.51128C6.88389 5.98253 6.43133 7.09003 5.52748 7.83378C4.6903 8.52003 3.50055 8.86378 1.95953 8.86378C1.19542 8.86378 0.541577 8.83128 -0.00585938 8.76628V0.727525C0.708244 0.615025 1.47748 0.557526 2.30824 0.557526C3.77619 0.557526 4.88261 0.868775 5.62876 1.49128C6.46466 2.19503 6.88389 3.20128 6.88389 4.51128ZM5.46722 4.54753C5.46722 3.59378 5.20825 2.86253 4.6903 2.35253C4.17235 1.84378 3.41594 1.58878 2.41979 1.58878C1.99671 1.58878 1.63645 1.61628 1.33773 1.67378V7.78503C1.50312 7.81003 1.80568 7.82128 2.24542 7.82128C3.27363 7.82128 4.06722 7.54253 4.6262 6.98503C5.18517 6.42753 5.46722 5.61503 5.46722 4.54753Z" fill="white"/>
<path d="M14.3958 5.79625C14.3958 6.7025 14.1304 7.445 13.5996 8.0275C13.0432 8.62625 12.3061 8.925 11.3855 8.925C10.4984 8.925 9.79195 8.63875 9.26503 8.06375C8.73939 7.49 8.47656 6.76625 8.47656 5.89375C8.47656 4.98125 8.74707 4.2325 9.29066 3.65125C9.83425 3.07 10.565 2.77875 11.4855 2.77875C12.3727 2.77875 13.0855 3.065 13.6253 3.63875C14.1381 4.19625 14.3958 4.91625 14.3958 5.79625ZM13.0022 5.83875C13.0022 5.295 12.8817 4.82875 12.642 4.44C12.3599 3.97 11.9586 3.735 11.4368 3.735C10.8971 3.735 10.4868 3.97 10.2048 4.44C9.96374 4.82875 9.84451 5.3025 9.84451 5.8625C9.84451 6.40625 9.96502 6.8725 10.2048 7.26125C10.4958 7.73125 10.9009 7.96625 11.424 7.96625C11.9368 7.96625 12.3394 7.7275 12.6291 7.24875C12.8778 6.8525 13.0022 6.3825 13.0022 5.83875Z" fill="white"/>
<path d="M24.4673 2.89877L22.5763 8.79127H21.3455L20.5622 6.23252C20.3635 5.59377 20.202 4.95877 20.0763 4.32877H20.052C19.9353 4.97627 19.7738 5.61002 19.5661 6.23252L18.734 8.79127H17.4891L15.7109 2.89877H17.0917L17.775 5.70002C17.9404 6.36252 18.0763 6.99377 18.1853 7.59127H18.2097C18.3097 7.09877 18.475 6.47127 18.7084 5.71252L19.5661 2.90002H20.6609L21.4827 5.65252C21.6814 6.32377 21.843 6.97002 21.9673 7.59252H22.0045C22.0955 6.98627 22.2327 6.34002 22.4148 5.65252L23.1481 2.90002H24.4673V2.89877Z" fill="white"/>
<path d="M31.4322 8.79128H30.0886V5.41628C30.0886 4.37627 29.6835 3.85627 28.8706 3.85627C28.4719 3.85627 28.1501 3.99878 27.9001 4.28503C27.6527 4.57128 27.5271 4.90877 27.5271 5.29502V8.79003H26.1835V4.58253C26.1835 4.06502 26.1668 3.50377 26.1348 2.89627H27.3155L27.3784 3.81753H27.4155C27.5719 3.53128 27.8053 3.29502 28.1117 3.10627C28.4758 2.88627 28.8835 2.77502 29.3296 2.77502C29.8937 2.77502 30.363 2.95252 30.736 3.30877C31.2001 3.74502 31.4322 4.39628 31.4322 5.26128V8.79128Z" fill="white"/>
<path d="M35.1372 8.79126H33.7949V0.195007H35.1372V8.79126Z" fill="white"/>
<path d="M43.0481 5.79625C43.0481 6.7025 42.7828 7.445 42.252 8.0275C41.6956 8.62625 40.9571 8.925 40.0379 8.925C39.1494 8.925 38.443 8.63875 37.9174 8.06375C37.3917 7.49 37.1289 6.76625 37.1289 5.89375C37.1289 4.98125 37.3994 4.2325 37.943 3.65125C38.4866 3.07 39.2174 2.77875 40.1366 2.77875C41.0251 2.77875 41.7366 3.065 42.2776 3.63875C42.7904 4.19625 43.0481 4.91625 43.0481 5.79625ZM41.6533 5.83875C41.6533 5.295 41.5328 4.82875 41.293 4.44C41.0122 3.97 40.6097 3.735 40.0892 3.735C39.5481 3.735 39.1379 3.97 38.8571 4.44C38.6161 4.82875 38.4969 5.3025 38.4969 5.8625C38.4969 6.40625 38.6174 6.8725 38.8571 7.26125C39.1481 7.73125 39.5533 7.96625 40.0763 7.96625C40.5892 7.96625 40.9904 7.7275 41.2802 7.24875C41.5302 6.8525 41.6533 6.3825 41.6533 5.83875Z" fill="white"/>
<path d="M49.5514 8.79124H48.345L48.245 8.1125H48.2078C47.795 8.65375 47.2065 8.925 46.4424 8.925C45.8719 8.925 45.4104 8.74625 45.0629 8.39125C44.7475 8.06875 44.5898 7.6675 44.5898 7.19125C44.5898 6.47125 44.8975 5.9225 45.5168 5.5425C46.1347 5.1625 47.0039 4.97625 48.1232 4.985V4.875C48.1232 4.09875 47.7052 3.71125 46.868 3.71125C46.2719 3.71125 45.7463 3.8575 45.2924 4.1475L45.0193 3.2875C45.5809 2.94875 46.2745 2.77875 47.0924 2.77875C48.6719 2.77875 49.4642 3.59125 49.4642 5.21625V7.38625C49.4642 7.975 49.4937 8.44375 49.5514 8.79124ZM48.1565 6.76625V5.8575C46.6745 5.8325 45.9334 6.22875 45.9334 7.045C45.9334 7.3525 46.018 7.5825 46.1911 7.73625C46.3642 7.89 46.5847 7.96625 46.8475 7.96625C47.1424 7.96625 47.418 7.875 47.6693 7.69375C47.9219 7.51125 48.077 7.28 48.1347 6.99625C48.1488 6.9325 48.1565 6.855 48.1565 6.76625Z" fill="white"/>
<path d="M57.1852 8.79126H55.9929L55.9301 7.84501H55.8929C55.5122 8.56501 54.8634 8.92501 53.9519 8.92501C53.2237 8.92501 52.6173 8.64626 52.1365 8.08876C51.6558 7.53126 51.416 6.80751 51.416 5.91876C51.416 4.96501 51.6763 4.19251 52.1993 3.60251C52.7058 3.05251 53.3263 2.77751 54.0647 2.77751C54.8763 2.77751 55.4442 3.04376 55.7673 3.57751H55.7929V0.195007H57.1378V7.20376C57.1378 7.77751 57.1532 8.30626 57.1852 8.79126ZM55.7929 6.30626V5.32376C55.7929 5.15376 55.7801 5.01626 55.7557 4.91126C55.6801 4.59626 55.5173 4.33126 55.2699 4.11751C55.0199 3.90376 54.7186 3.79626 54.3711 3.79626C53.8699 3.79626 53.4775 3.99001 53.1891 4.37876C52.9032 4.76751 52.7583 5.26376 52.7583 5.87001C52.7583 6.45251 52.8955 6.92501 53.1711 7.28876C53.4622 7.67626 53.8545 7.87001 54.3455 7.87001C54.7865 7.87001 55.1391 7.70876 55.407 7.38501C55.666 7.08626 55.7929 6.72626 55.7929 6.30626Z" fill="white"/>
<path d="M68.677 5.79625C68.677 6.7025 68.4117 7.445 67.8809 8.0275C67.3245 8.62625 66.5886 8.925 65.6668 8.925C64.7809 8.925 64.0745 8.63875 63.5463 8.06375C63.0206 7.49 62.7578 6.76625 62.7578 5.89375C62.7578 4.98125 63.0283 4.2325 63.5719 3.65125C64.1155 3.07 64.8463 2.77875 65.7681 2.77875C66.654 2.77875 67.3681 3.065 67.9065 3.63875C68.4194 4.19625 68.677 4.91625 68.677 5.79625ZM67.2847 5.83875C67.2847 5.295 67.1642 4.82875 66.9245 4.44C66.6411 3.97 66.2411 3.735 65.7181 3.735C65.1796 3.735 64.7693 3.97 64.486 4.44C64.245 4.82875 64.1258 5.3025 64.1258 5.8625C64.1258 6.40625 64.2463 6.8725 64.486 7.26125C64.777 7.73125 65.1822 7.96625 65.7052 7.96625C66.2181 7.96625 66.6219 7.7275 66.9117 7.24875C67.1591 6.8525 67.2847 6.3825 67.2847 5.83875Z" fill="white"/>
<path d="M75.8997 8.79128H74.5573V5.41628C74.5573 4.37627 74.1522 3.85627 73.3381 3.85627C72.9394 3.85627 72.6176 3.99878 72.3689 4.28503C72.1202 4.57128 71.9958 4.90877 71.9958 5.29502V8.79003H70.651V4.58253C70.651 4.06502 70.6356 3.50377 70.6035 2.89627H71.783L71.8458 3.81753H71.883C72.0407 3.53128 72.274 3.29502 72.5792 3.10627C72.9445 2.88627 73.3509 2.77502 73.7984 2.77502C74.3612 2.77502 74.8304 2.95252 75.2035 3.30877C75.6689 3.74502 75.8997 4.39628 75.8997 5.26128V8.79128Z" fill="white"/>
<path d="M84.9425 3.88002H83.463V6.74252C83.463 7.47002 83.7258 7.83377 84.2463 7.83377C84.4874 7.83377 84.6874 7.81377 84.8451 7.77252L84.8797 8.76627C84.6143 8.86377 84.2656 8.91252 83.8361 8.91252C83.3053 8.91252 82.8925 8.75502 82.5938 8.44002C82.2938 8.12502 82.145 7.59502 82.145 6.85127V3.88002H81.2617V2.89877H82.145V1.81877L83.4617 1.43127V2.89752H84.9412V3.88002H84.9425Z" fill="white"/>
<path d="M92.0554 8.79126H90.7105V5.44126C90.7105 4.38501 90.3054 3.85626 89.4938 3.85626C88.8708 3.85626 88.4451 4.16251 88.2118 4.77501C88.172 4.90376 88.149 5.06126 88.149 5.24626V8.79001H86.8066V0.195007H88.149V3.74626H88.1746C88.5977 3.10001 89.2041 2.77751 89.99 2.77751C90.5464 2.77751 91.0067 2.95501 91.372 3.31126C91.8272 3.75501 92.0554 4.41501 92.0554 5.28751V8.79126Z" fill="white"/>
<path d="M99.3926 5.56627C99.3926 5.80127 99.3747 5.99877 99.3426 6.16002H95.3131C95.3311 6.74252 95.5234 7.18627 95.8965 7.49377C96.2375 7.76877 96.6772 7.90627 97.2157 7.90627C97.8118 7.90627 98.3554 7.81377 98.8452 7.62752L99.0554 8.53752C98.4824 8.78002 97.808 8.90127 97.0272 8.90127C96.0913 8.90127 95.3541 8.63252 94.8208 8.09502C94.2849 7.55752 94.0195 6.83627 94.0195 5.93127C94.0195 5.04252 94.267 4.30252 94.7657 3.71252C95.2862 3.08252 95.99 2.76752 96.8785 2.76752C97.7477 2.76752 98.408 3.08252 98.8541 3.71252C99.2144 4.21252 99.3926 4.83127 99.3926 5.56627ZM98.1106 5.22752C98.1208 4.83877 98.0323 4.50377 97.8503 4.22127C97.617 3.85752 97.2618 3.67502 96.7811 3.67502C96.3426 3.67502 95.9849 3.85252 95.7118 4.20877C95.4888 4.49252 95.3567 4.83127 95.3131 5.22752H98.1106Z" fill="white"/>
</svg>
