<svg width="51" height="9" viewBox="0 0 51 9" fill="none" xmlns="http://www.w3.org/2000/svg">
<path d="M7.97034 4.8047C7.97034 5.84845 7.64889 6.68439 7.01562 7.30783C6.28753 8.04689 5.33924 8.41876 4.17719 8.41876C3.06657 8.41876 2.11827 8.04064 1.34035 7.29533C0.56083 6.53908 0.171875 5.61095 0.171875 4.50002C0.171875 3.38908 0.56083 2.46096 1.34035 1.71096C2.11827 0.959394 3.06657 0.581268 4.17719 0.581268C4.73009 0.581268 5.25727 0.692206 5.76034 0.898456C6.26181 1.10627 6.67006 1.38752 6.96579 1.73439L6.29396 2.39377C5.77802 1.80158 5.07565 1.50939 4.17719 1.50939C3.36713 1.50939 2.66475 1.78439 2.06845 2.33908C1.47858 2.89533 1.18284 3.61564 1.18284 4.50002C1.18284 5.38439 1.47858 6.11095 2.06845 6.6672C2.66475 7.21564 3.36713 7.49689 4.17719 7.49689C5.03708 7.49689 5.76035 7.21564 6.33093 6.66095C6.70703 6.29377 6.9208 5.78752 6.97705 5.14064H4.17719V4.23752H7.91248C7.95748 4.43283 7.97034 4.62189 7.97034 4.8047Z" fill="white" stroke="white" stroke-width="0.16" stroke-miterlimit="10"/>
<path d="M13.8965 1.67346H10.3878V4.04846H13.5509V4.95158H10.3878V7.32658H13.8965V8.24689H9.39453V0.753143H13.8965V1.67346Z" fill="white" stroke="white" stroke-width="0.16" stroke-miterlimit="10"/>
<path d="M18.079 8.24689H17.0857V1.67346H14.9336V0.753143H20.2328V1.67346H18.079V8.24689Z" fill="white" stroke="white" stroke-width="0.16" stroke-miterlimit="10"/>
<path d="M24.0664 8.24689V0.753143H25.0581V8.24689H24.0664Z" fill="white" stroke="white" stroke-width="0.16" stroke-miterlimit="10"/>
<path d="M29.454 8.24689H28.4688V1.67346H26.3086V0.753143H31.6142V1.67346H29.454V8.24689Z" fill="white" stroke="white" stroke-width="0.16" stroke-miterlimit="10"/>
<path d="M41.6474 7.28283C40.8872 8.04064 39.9453 8.41876 38.8219 8.41876C37.6919 8.41876 36.7501 8.04064 35.9899 7.28283C35.2312 6.52658 34.8535 5.59845 34.8535 4.50002C34.8535 3.40158 35.2312 2.47346 35.9899 1.71721C36.7501 0.959393 37.6919 0.581268 38.8219 0.581268C39.9389 0.581268 40.8808 0.959393 41.641 1.72346C42.4061 2.48595 42.7838 3.40783 42.7838 4.50002C42.7838 5.59845 42.4061 6.52658 41.6474 7.28283ZM36.7244 6.6547C37.2966 7.21564 37.9925 7.49689 38.8219 7.49689C39.6448 7.49689 40.3472 7.21564 40.9129 6.6547C41.4835 6.09377 41.7728 5.37345 41.7728 4.50002C41.7728 3.62658 41.4835 2.90627 40.9129 2.34533C40.3472 1.78439 39.6448 1.50314 38.8219 1.50314C37.9925 1.50314 37.2966 1.78439 36.7244 2.34533C36.1538 2.90627 35.8645 3.62658 35.8645 4.50002C35.8645 5.37345 36.1538 6.09377 36.7244 6.6547Z" fill="white" stroke="white" stroke-width="0.16" stroke-miterlimit="10"/>
<path d="M44.1777 8.24689V0.753143H45.3832L49.1313 6.58127H49.1747L49.1313 5.14064V0.753143H50.123V8.24689H49.0879L45.163 2.13127H45.1196L45.163 3.57814V8.24689H44.1777Z" fill="white" stroke="white" stroke-width="0.16" stroke-miterlimit="10"/>
</svg>
