<svg width="122" height="40" viewBox="0 0 122 40" fill="none" xmlns="http://www.w3.org/2000/svg">
<path d="M15.0245 0H16.1094C19.8756 0.0822428 23.5804 1.60374 26.2413 4.29719C25.2589 5.30466 24.2559 6.27102 23.2939 7.27849C21.7997 5.92149 19.9984 4.87289 18.0334 4.5028C15.1269 3.88597 11.9952 4.44111 9.55943 6.10653C6.89851 7.85419 5.09728 10.8149 4.70837 13.9813C4.27853 17.1065 5.15868 20.3962 7.18507 22.8224C9.12959 25.1869 12.0975 26.6672 15.1678 26.77C18.0334 26.9345 21.0218 26.0504 23.1096 24.0355C24.7471 22.6168 25.5045 20.4579 25.7501 18.3607C22.3523 18.3607 18.9545 18.3813 15.5567 18.3607V14.1252H29.8643C30.6012 18.6691 29.5368 23.7887 26.0981 27.0373C23.8056 29.3401 20.6329 30.6971 17.3989 30.9644C14.2672 31.2728 11.0332 30.6766 8.24944 29.1551C4.91306 27.3663 2.25214 24.3439 0.942151 20.7869C-0.285965 17.5177 -0.306433 13.8168 0.839808 10.5271C1.88371 7.52522 3.88963 4.87289 6.46867 3.02242C8.94537 1.19252 11.9543 0.185046 15.0245 0Z" fill="#3780FF"/>
<path d="M97.1035 1.06909H101.484V30.4298C100.031 30.4298 98.5568 30.4504 97.1035 30.4092C97.124 20.6429 97.1035 10.856 97.1035 1.06909Z" fill="#38B137"/>
<path d="M39.6072 11.2466C42.309 10.7326 45.236 11.3083 47.4671 12.9326C49.4935 14.3718 50.9058 16.6335 51.3357 19.1008C51.8883 21.9587 51.1924 25.084 49.3502 27.3456C47.3648 29.8746 44.1103 31.2316 40.9376 31.026C38.0311 30.8615 35.2064 29.4017 33.4871 27.0167C31.5425 24.3849 31.0718 20.7662 32.1361 17.6821C33.2005 14.3718 36.2094 11.8429 39.6072 11.2466ZM40.2212 15.1531C39.1159 15.441 38.0925 16.0784 37.3556 16.983C35.3702 19.3681 35.493 23.2541 37.6831 25.4746C38.9317 26.7494 40.8148 27.3456 42.5547 26.9961C44.1717 26.7083 45.584 25.6185 46.3618 24.1793C47.7127 21.7326 47.3238 18.3606 45.2565 16.4485C43.9261 15.2148 41.9815 14.7008 40.2212 15.1531Z" fill="#FA3913"/>
<path d="M61.3044 11.2466C64.3951 10.6504 67.7724 11.5139 70.0854 13.6934C73.8516 17.0859 74.261 23.4391 71.0474 27.3457C69.1029 29.813 65.9507 31.17 62.8395 31.0261C59.8716 30.9438 56.9445 29.4634 55.1842 27.0167C53.1988 24.3233 52.7689 20.6223 53.8947 17.4765C55.0205 14.2691 57.968 11.8223 61.3044 11.2466ZM61.9184 15.1532C60.8131 15.441 59.7897 16.0784 59.0528 16.9625C57.0878 19.3064 57.1697 23.1307 59.278 25.3719C60.5265 26.7083 62.4711 27.3662 64.2723 26.9962C65.8689 26.6877 67.3017 25.6186 68.0795 24.1793C69.4099 21.712 69.021 18.3401 66.9332 16.4279C65.6028 15.1943 63.6582 14.7008 61.9184 15.1532Z" fill="#FCBD06"/>
<path d="M79.7053 12.4393C82.0592 10.9589 85.1909 10.5477 87.729 11.8225C88.5273 12.172 89.1823 12.7683 89.8168 13.3646C89.8373 12.8094 89.8168 12.2337 89.8373 11.658C91.2087 11.6786 92.5801 11.658 93.9719 11.6786V29.8131C93.9515 32.5477 93.2555 35.4468 91.2905 37.4411C89.1413 39.6411 85.8459 40.3196 82.8779 39.8673C79.7053 39.3944 76.942 37.0711 75.7139 34.1309C76.942 33.5346 78.2316 33.0617 79.5006 32.5066C80.217 34.1926 81.6703 35.6318 83.492 35.9608C85.3137 36.2897 87.422 35.8374 88.6091 34.3159C89.8782 32.7533 89.8782 30.615 89.8168 28.7028C88.8752 29.6281 87.7904 30.4505 86.4804 30.7589C83.6353 31.5608 80.5036 30.5739 78.3134 28.6412C76.1028 26.7085 74.7928 23.7271 74.9157 20.7664C74.9771 17.415 76.8602 14.187 79.7053 12.4393ZM83.9423 15.0711C82.6937 15.2767 81.527 15.9758 80.7287 16.9421C78.8047 19.2449 78.8047 22.9253 80.7492 25.187C81.8545 26.5234 83.6353 27.2636 85.3546 27.0785C86.9717 26.9141 88.4659 25.886 89.2641 24.4673C90.6151 22.0617 90.3899 18.7926 88.5682 16.6954C87.4424 15.4001 85.6412 14.7627 83.9423 15.0711Z" fill="#3780FF"/>
<path d="M106.745 13.4878C109.201 11.185 112.988 10.4037 116.14 11.6168C119.128 12.7476 121.032 15.6056 121.994 18.5457C117.552 20.3962 113.131 22.2261 108.689 24.0766C109.303 25.2485 110.245 26.3177 111.514 26.7495C113.295 27.3869 115.423 27.1607 116.917 25.9682C117.511 25.5158 117.982 24.9196 118.432 24.3439C119.558 25.1046 120.684 25.8448 121.809 26.6055C120.213 29.0111 117.532 30.6971 114.645 30.9644C111.452 31.3551 108.055 30.1214 105.987 27.613C102.589 23.6654 102.917 17.0448 106.745 13.4878ZM108.935 17.2915C108.239 18.299 107.952 19.5327 107.973 20.7457C110.941 19.5121 113.909 18.2785 116.877 17.0243C116.385 15.8729 115.198 15.1738 113.99 14.9887C112.046 14.6392 110.02 15.6878 108.935 17.2915Z" fill="#FA3913"/>
</svg>
