<svg width="110" height="22" viewBox="0 0 110 22" fill="none" xmlns="http://www.w3.org/2000/svg">
<path d="M35.6086 6.19065C32.5886 6.19065 30.1214 8.42502 30.1214 11.5078C30.1214 14.5656 32.5886 16.8235 35.6086 16.8235C38.6351 16.8235 41.1023 14.5656 41.1023 11.5078C41.1023 8.42502 38.6351 6.19065 35.6086 6.19065ZM35.6086 14.7297C33.9516 14.7297 32.5259 13.4 32.5259 11.5078C32.5259 9.59065 33.9516 8.2844 35.6086 8.2844C37.2657 8.2844 38.6978 9.59065 38.6978 11.5078C38.6978 13.4 37.2657 14.7297 35.6086 14.7297ZM23.6361 6.19065C20.6096 6.19065 18.1489 8.42502 18.1489 11.5078C18.1489 14.5656 20.6096 16.8235 23.6361 16.8235C26.661 16.8235 29.1233 14.5656 29.1233 11.5078C29.1233 8.42502 26.661 6.19065 23.6361 6.19065ZM23.6361 14.7297C21.9774 14.7297 20.547 13.4 20.547 11.5078C20.547 9.59065 21.9774 8.2844 23.6361 8.2844C25.2932 8.2844 26.7189 9.59065 26.7189 11.5078C26.7189 13.4 25.2932 14.7297 23.6361 14.7297ZM9.3893 7.82033V10.0797H14.9392C14.7769 11.3422 14.3429 12.2703 13.6775 12.9172C12.8674 13.6985 11.6057 14.5656 9.3893 14.5656C5.97386 14.5656 3.29937 11.886 3.29937 8.56565C3.29937 5.24534 5.97386 2.56565 9.3893 2.56565C11.2361 2.56565 12.5797 3.26721 13.5714 4.17659L15.2092 2.5844C13.8221 1.2969 11.977 0.307833 9.3893 0.307833C4.70573 0.307833 0.769531 4.01252 0.769531 8.56565C0.769531 13.1188 4.70573 16.8235 9.3893 16.8235C11.9207 16.8235 13.8221 16.0172 15.3169 14.5047C16.8486 13.0156 17.326 10.9219 17.326 9.23127C17.326 8.70627 17.281 8.22346 17.2006 7.82033H9.3893ZM67.6463 9.5719C67.1947 8.38283 65.8012 6.19065 62.9627 6.19065C60.15 6.19065 57.8082 8.34533 57.8082 11.5078C57.8082 14.486 60.1259 16.8235 63.2327 16.8235C65.7449 16.8235 67.1947 15.3344 67.791 14.4672L65.9265 13.2594C65.3045 14.1438 64.4575 14.7297 63.2327 14.7297C62.016 14.7297 61.1433 14.1875 60.584 13.1188L67.8986 10.1766L67.6463 9.5719ZM60.1886 11.3422C60.1259 9.29221 61.8264 8.24221 63.0447 8.24221C63.9994 8.24221 64.8095 8.70627 65.0795 9.37033L60.1886 11.3422ZM54.2433 16.5H56.6478V0.875021H54.2433V16.5ZM50.3055 7.37502H50.2251C49.6851 6.75315 48.6548 6.19065 47.3497 6.19065C44.611 6.19065 42.1068 8.52815 42.1068 11.525C42.1068 14.5047 44.611 16.8235 47.3497 16.8235C48.6548 16.8235 49.6851 16.2563 50.2251 15.6156H50.3055V16.3781C50.3055 18.411 49.1884 19.5031 47.3867 19.5031C45.9177 19.5031 45.0063 18.4719 44.6302 17.6047L42.5392 18.4531C43.1419 19.8625 44.7379 21.5969 47.3867 21.5969C50.2058 21.5969 52.5846 19.9844 52.5846 16.061V6.51408H50.3055V7.37502ZM47.5555 14.7297C45.8984 14.7297 44.5113 13.3813 44.5113 11.525C44.5113 9.65158 45.8984 8.2844 47.5555 8.2844C49.1884 8.2844 50.4759 9.65158 50.4759 11.525C50.4759 13.3813 49.1884 14.7297 47.5555 14.7297ZM78.9036 0.875021H73.1528V16.5H75.5508V10.5797H78.9036C81.5668 10.5797 84.1786 8.70627 84.1786 5.72658C84.1786 2.74846 81.5604 0.875021 78.9036 0.875021ZM78.9663 8.40627H75.5508V3.04846H78.9663C80.7568 3.04846 81.779 4.49377 81.779 5.72658C81.779 6.93596 80.7568 8.40627 78.9663 8.40627ZM93.7901 6.16096C92.0575 6.16096 90.2557 6.90471 89.5148 8.55315L91.6428 9.42033C92.1009 8.55315 92.9431 8.27189 93.8335 8.27189C95.0775 8.27189 96.3392 8.99846 96.3585 10.2813V10.4453C95.9246 10.2016 94.9956 9.84065 93.8528 9.84065C91.5608 9.84065 89.2255 11.0672 89.2255 13.3563C89.2255 15.45 91.1028 16.7985 93.2131 16.7985C94.8268 16.7985 95.7172 16.0906 96.2765 15.2672H96.3585V16.475H98.6746V10.4813C98.6746 7.71096 96.5466 6.16096 93.7901 6.16096ZM93.5008 14.7235C92.7164 14.7235 91.6235 14.3453 91.6235 13.4C91.6235 12.1906 92.9865 11.7266 94.1662 11.7266C95.2222 11.7266 95.7172 11.9531 96.3585 12.2516C96.1705 13.6985 94.8895 14.7235 93.5008 14.7235ZM107.113 6.50314L104.356 13.2766H104.274L101.425 6.50314H98.8385L103.12 15.9688L100.677 21.236H103.183L109.781 6.50314H107.113ZM85.4966 16.5H87.9011V0.875021H85.4966V16.5Z" fill="white"/>
</svg>
