<svg width="32" height="32" viewBox="0 0 32 32" fill="none" xmlns="http://www.w3.org/2000/svg">
<path d="M25.868 21.2002C25.95 20.8802 26 20.5462 26 20.2002V11.2002C26 8.9942 24.206 7.2002 22 7.2002H10C7.794 7.2002 6 8.9942 6 11.2002V20.2002C6 20.5462 6.048 20.8802 6.132 21.2002H25.868ZM9.2 11.2002C9.2 10.7582 9.558 10.4002 10 10.4002H22C22.442 10.4002 22.8 10.7582 22.8 11.2002V20.2002C22.8 20.6422 22.442 21.0002 22 21.0002H10C9.558 21.0002 9.2 20.6422 9.2 20.2002V11.2002Z" fill="#886CFF"/>
<path d="M26.8004 20.6001H5.00039C4.11673 20.6001 3.40039 21.3164 3.40039 22.2001C3.40039 23.0838 4.11673 23.8001 5.00039 23.8001H26.8004C27.684 23.8001 28.4004 23.0838 28.4004 22.2001C28.4004 21.3164 27.684 20.6001 26.8004 20.6001Z" fill="#886CFF"/>
</svg>
