<svg width="60" height="60" viewBox="0 0 60 60" fill="none" xmlns="http://www.w3.org/2000/svg">
<path d="M45.7582 32.0222L44.3834 30.7472L45.7582 32.0222ZM28.0805 14.3446L29.3555 15.7193L28.0805 14.3446ZM54.1516 10.6808L56.0108 10.924L54.1516 10.6808ZM49.422 5.95116L49.6651 7.81032L49.422 5.95116ZM16.2352 31.6265L17.9188 32.4519L16.2352 31.6265ZM28.4762 43.8675L27.6509 42.1839L28.4762 43.8675ZM20.5676 25.393C19.8353 24.6608 18.6482 24.6608 17.9159 25.393C17.1837 26.1253 17.1837 27.3124 17.9159 28.0447L20.5676 25.393ZM32.0581 42.1868C32.7903 42.919 33.9775 42.919 34.7097 42.1868C35.442 41.4546 35.4419 40.2674 34.7097 39.5352L32.0581 42.1868ZM16.1482 46.6062C16.8804 45.874 16.8804 44.6868 16.1482 43.9546C15.4159 43.2223 14.2287 43.2223 13.4965 43.9546L16.1482 46.6062ZM6.42545 51.0256C5.69322 51.7579 5.69321 52.9451 6.42545 53.6773C7.15768 54.4095 8.34487 54.4095 9.0771 53.6773L6.42545 51.0256ZM10.8449 41.3029C11.5771 40.5707 11.5771 39.3835 10.8449 38.6513C10.1126 37.919 8.92545 37.919 8.19321 38.6513L10.8449 41.3029ZM4.65768 42.1868C3.92545 42.919 3.92545 44.1062 4.65768 44.8385C5.38991 45.5707 6.5771 45.5707 7.30933 44.8385L4.65768 42.1868ZM21.4515 51.9095C22.1837 51.1773 22.1837 49.9901 21.4515 49.2579C20.7192 48.5256 19.532 48.5256 18.7998 49.2579L21.4515 51.9095ZM15.2643 52.7934C14.532 53.5256 14.532 54.7128 15.2643 55.4451C15.9965 56.1773 17.1837 56.1773 17.9159 55.4451L15.2643 52.7934ZM26.4896 52.705L28.3458 52.4399L26.4896 52.705ZM39.3943 44.043L41.2505 43.7778L39.3943 44.043ZM7.39767 33.6132L7.66283 31.757L7.66283 31.757L7.39767 33.6132ZM16.0597 20.7085L15.7946 22.5646L15.7946 22.5646L16.0597 20.7085ZM24.3749 41.5749L18.5278 35.7278L15.8762 38.3795L21.7233 44.2266L24.3749 41.5749ZM44.3834 30.7472C39.6493 35.8516 31.9626 40.0701 27.6509 42.1839L29.3016 45.5511C33.6522 43.4182 41.8913 38.9488 47.1329 33.2973L44.3834 30.7472ZM17.9188 32.4519C20.0327 28.1401 24.2512 20.4534 29.3555 15.7193L26.8055 12.9698C21.1539 18.2115 16.6845 26.4506 14.5517 30.8011L17.9188 32.4519ZM52.2924 10.4376C51.5328 16.246 49.5145 25.2149 44.3834 30.7472L47.1329 33.2973C53.1217 26.8402 55.2394 16.8215 56.0108 10.924L52.2924 10.4376ZM29.3555 15.7193C34.8878 10.5883 43.8567 8.56998 49.6651 7.81032L49.1788 4.09199C43.2813 4.86331 33.2626 6.98107 26.8055 12.9698L29.3555 15.7193ZM56.0108 10.924C56.5384 6.88927 53.2135 3.5643 49.1788 4.09199L49.6651 7.81032C51.2575 7.60206 52.5007 8.84524 52.2924 10.4376L56.0108 10.924ZM18.5278 35.7278C17.6199 34.8199 17.398 33.5142 17.9188 32.4519L14.5517 30.8011C13.2812 33.3927 13.9067 36.41 15.8762 38.3795L18.5278 35.7278ZM21.7233 44.2266C23.6928 46.1961 26.7101 46.8216 29.3016 45.5511L27.6509 42.1839C26.5886 42.7047 25.2829 42.4829 24.3749 41.5749L21.7233 44.2266ZM17.9159 28.0447L32.0581 42.1868L34.7097 39.5352L20.5676 25.393L17.9159 28.0447ZM13.4965 43.9546L6.42545 51.0256L9.0771 53.6773L16.1482 46.6062L13.4965 43.9546ZM8.19321 38.6513L4.65768 42.1868L7.30933 44.8385L10.8449 41.3029L8.19321 38.6513ZM18.7998 49.2579L15.2643 52.7934L17.9159 55.4451L21.4515 51.9095L18.7998 49.2579ZM32.9419 17.4381C30.2571 20.1229 30.2571 24.4759 32.942 27.1608L35.5936 24.5091C34.3732 23.2887 34.3732 21.3101 35.5936 20.0897L32.9419 17.4381ZM32.942 27.1608C35.6268 29.8456 39.9798 29.8456 42.6647 27.1608L40.013 24.5091C38.7926 25.7295 36.814 25.7295 35.5936 24.5091L32.942 27.1608ZM42.6647 27.1608C45.3495 24.4759 45.3495 20.1229 42.6647 17.4381L40.013 20.0897C41.2334 21.3101 41.2334 23.2888 40.013 24.5091L42.6647 27.1608ZM42.6647 17.4381C39.9798 14.7532 35.6268 14.7532 32.9419 17.4381L35.5936 20.0897C36.814 18.8693 38.7926 18.8693 40.013 20.0897L42.6647 17.4381ZM37.3614 44.8385L29.4064 52.7934L32.0581 55.4451L40.013 47.4901L37.3614 44.8385ZM28.3458 52.4399L27.2851 45.0152L23.5728 45.5456L24.6334 52.9702L28.3458 52.4399ZM36.831 39.3584L37.5381 44.3081L41.2505 43.7778L40.5433 38.8281L36.831 39.3584ZM29.4064 52.7934C29.0422 53.1576 28.4186 52.9497 28.3458 52.4399L24.6334 52.9702C25.1433 56.5391 29.5088 57.9943 32.0581 55.4451L29.4064 52.7934ZM40.013 47.4901C40.9867 46.5164 41.4452 45.141 41.2505 43.7778L37.5381 44.3081C37.566 44.5029 37.5005 44.6994 37.3614 44.8385L40.013 47.4901ZM12.6126 20.0898L4.65763 28.0447L7.30928 30.6964L15.2642 22.7414L12.6126 20.0898ZM7.1325 35.4693L14.5571 36.53L15.0875 32.8177L7.66283 31.757L7.1325 35.4693ZM21.2746 19.5594L16.3249 18.8523L15.7946 22.5646L20.7443 23.2718L21.2746 19.5594ZM4.65763 28.0447C2.10837 30.594 3.56354 34.9595 7.1325 35.4693L7.66283 31.757C7.15298 31.6842 6.9451 31.0606 7.30928 30.6964L4.65763 28.0447ZM15.2642 22.7414C15.4033 22.6023 15.5998 22.5368 15.7946 22.5646L16.3249 18.8523C14.9617 18.6576 13.5863 19.116 12.6126 20.0898L15.2642 22.7414Z" fill="#886CFF"/>
</svg>
