<svg width="96" height="40" viewBox="0 0 96 40" fill="none" xmlns="http://www.w3.org/2000/svg">
<path d="M6.96492 15.6742C6.96492 14.6329 7.80935 14.2323 9.20818 14.2323C11.2136 14.2323 13.7468 14.8466 15.7524 15.9414V9.66618C13.5622 8.78506 11.3984 8.43791 9.20818 8.43791C3.85107 8.43791 0.288574 11.2684 0.288574 15.9949C0.288574 23.3645 10.3163 22.1897 10.3163 25.3674C10.3163 26.5955 9.26088 26.9962 7.783 26.9962C5.5928 26.9962 2.7955 26.0882 0.57877 24.8599V31.2151C3.033 32.2832 5.51357 32.737 7.783 32.737C13.2718 32.737 17.0455 29.9869 17.0455 25.2071C17.0191 17.2498 6.96492 18.6649 6.96492 15.6742ZM24.8038 3.09752L18.3649 4.48594L18.3386 25.8745C18.3386 29.8267 21.2678 32.737 25.1734 32.737C27.3372 32.737 28.9205 32.3366 29.7913 31.8559V26.4354C28.947 26.7825 24.7774 28.0108 24.7774 24.0588V14.5794H29.7913V8.89189H24.7774L24.8038 3.09752ZM37.9984 10.8678L37.5761 8.89189H31.8761V32.2564H38.4734V16.422C40.0301 14.366 42.6691 14.7398 43.4872 15.0334V8.89189C42.6428 8.5714 39.5553 7.98393 37.9984 10.8678ZM45.0968 8.89189H51.7205V32.2564H45.0968V8.89189ZM45.0968 6.86249L51.7205 5.42056V0L45.0968 1.41527V6.8623V6.86249ZM65.4955 8.43791C62.9093 8.43791 61.2468 9.66618 60.3234 10.5208L59.9801 8.86523H54.1747V40L60.7718 38.5849L60.7984 31.0281C61.7484 31.7224 63.1468 32.7104 65.4692 32.7104C70.1928 32.7104 74.4941 28.8652 74.4941 20.4007C74.4678 12.6569 70.1136 8.43791 65.4955 8.43791ZM63.9122 26.8358C62.3553 26.8358 61.4315 26.2752 60.7984 25.5809L60.7718 15.6742C61.458 14.8999 62.408 14.366 63.9122 14.366C66.3136 14.366 67.9761 17.0895 67.9761 20.5875C67.9761 24.1656 66.3399 26.8358 63.9122 26.8358ZM95.2886 20.6676C95.2886 13.8318 92.0163 8.43791 85.7622 8.43791C79.4815 8.43791 75.6815 13.832 75.6815 20.6143C75.6815 28.6516 80.1678 32.7104 86.6065 32.7104C89.7468 32.7104 92.1218 31.9894 93.9163 30.9748V25.6342C92.122 26.5422 90.0636 27.103 87.4511 27.103C84.8913 27.103 82.6218 26.195 82.3316 23.0442H95.2359C95.2359 22.6969 95.2886 21.3084 95.2886 20.6676ZM82.2524 18.1309C82.2524 15.1136 84.0734 13.8585 85.7359 13.8585C87.3455 13.8585 89.0609 15.1136 89.0609 18.1309H82.2524Z" fill="#6772E5"/>
</svg>
